HIERARCHY
ROOT Root
{
	OFFSET 0.00000 0.00000 0.00000
	CHANNELS 6 Xposition Yposition Zposition Zrotation Xrotation Yrotation
	JOINT Hip
	{
		OFFSET 0 0 0	
		CHANNELS 3 Zrotation Xrotation Yrotation
		JOINT Tummy
		{
			OFFSET 0 0.04 0	
			CHANNELS 3 Zrotation Xrotation Yrotation
			JOINT ChestBottom
			{
				OFFSET 0 0.194 0	
				CHANNELS 3 Zrotation Xrotation Yrotation
				JOINT ChestTop
				{
					OFFSET 0 0.166 0	
					CHANNELS 3 Zrotation Xrotation Yrotation
					JOINT LeftCollar
					{
						OFFSET 0 0.1 0	
						CHANNELS 3 Zrotation Xrotation Yrotation
						JOINT LeftUpperArm
						{
							OFFSET 0.156 -0.02 0.03	
							CHANNELS 3 Zrotation Xrotation Yrotation
							JOINT LeftForeArm
							{
								OFFSET 0.035 -0.27 -0.01	
								CHANNELS 3 Zrotation Xrotation Yrotation
								JOINT LeftHand
								{
									OFFSET 0.01 -0.27 0.01	
									CHANNELS 3 Zrotation Xrotation Yrotation
									End Site
									{
										OFFSET 0 -0.15 0
									}
								}
							}
						}
					}
					JOINT RightCollar
					{
						OFFSET 0 0.1 0	
						CHANNELS 3 Zrotation Xrotation Yrotation
						JOINT RightUpperArm
						{
							OFFSET -0.156 -0.02 0.03	
							CHANNELS 3 Zrotation Xrotation Yrotation
							JOINT RightForeArm
							{
								OFFSET -0.035 -0.27 -0.01	
								CHANNELS 3 Zrotation Xrotation Yrotation
								JOINT RightHand
								{
									OFFSET -0.01 -0.27 0.01	
									CHANNELS 3 Zrotation Xrotation Yrotation
									End Site
									{
										OFFSET 0 -0.15 0
									}
								}
							}
						}
					}
					JOINT Neck
					{
						OFFSET 0 0.1 0	
						CHANNELS 3 Zrotation Xrotation Yrotation
						JOINT Head
						{
							OFFSET 0 0.127 0.03	
							CHANNELS 3 Zrotation Xrotation Yrotation
							End Site
							{
								OFFSET 0 0.127 0.03
							}
						}
					}
				}
			}
		}
	}
	JOINT LeftHip
	{
		OFFSET 0 0 0	
		CHANNELS 3 Zrotation Xrotation Yrotation
		JOINT LeftThigh
		{
			OFFSET 0.088 -0.06 0	
			CHANNELS 3 Zrotation Xrotation Yrotation
			JOINT LeftLowerLeg
			{
				OFFSET 0 -0.39 0.02	
				CHANNELS 3 Zrotation Xrotation Yrotation
				JOINT LeftFootTop
				{
					OFFSET 0 -0.43 -0.02	
					CHANNELS 3 Zrotation Xrotation Yrotation
					JOINT LeftFootFront
					{
						OFFSET 0 -0.07 0.085	
						CHANNELS 3 Zrotation Xrotation Yrotation
						End Site
						{
							OFFSET 0 -0.005 0.09
						}
					}
				}
				JOINT LeftHeel
				{
					OFFSET 0 -0.43 -0.02	
					CHANNELS 3 Zrotation Xrotation Yrotation
					End Site
					{
						OFFSET 0 -0.075 -0.05
					}
				}
			}
		}
	}
	JOINT RightHip
	{
		OFFSET 0 0 0	
		CHANNELS 3 Zrotation Xrotation Yrotation
		JOINT RightThigh
		{
			OFFSET -0.088 -0.06 0	
			CHANNELS 3 Zrotation Xrotation Yrotation
			JOINT RightLowerLeg
			{
				OFFSET 0 -0.39 0.02	
				CHANNELS 3 Zrotation Xrotation Yrotation
				JOINT RightFootTop
				{
					OFFSET 0 -0.43 -0.02	
					CHANNELS 3 Zrotation Xrotation Yrotation
					JOINT RightFootFront
					{
						OFFSET 0 -0.07 0.085	
						CHANNELS 3 Zrotation Xrotation Yrotation
						End Site
						{
							OFFSET 0 -0.005 0.09
						}
					}
				}
				JOINT RightHeel
				{
					OFFSET 0 -0.43 -0.02	
					CHANNELS 3 Zrotation Xrotation Yrotation
					End Site
					{
						OFFSET 0 -0.075 -0.05
					}
				}
			}
		}
	}
}
MOTION
Frames: 15
Frame Time: 0.05
0 0.95228 0 -0 0 -0 -2.6316 -5.6379 158.66 1.6081 -5.7566 -6.0787 1.6081 -5.7566 -6.0787 1.3913 -4.8246 -5.114 -0 0 -0 21.198 -12.58 -2.2533 -31.877 -53.714 -2.5188 -9.7492 -65.878 -52.149 -0 0 -0 -16.323 14.332 -10.674 57.2 -38.23 52.267 4.0548 2.5776 25.454 3.8817 -8.5616 16.791 3.8817 -8.5616 16.791 -2.6316 -5.6379 158.66 5.2679 -5.6888 -6.2952 -0 0 -0 -0 0 -0 -0 0 -0 -0 0 -0 -2.6316 -5.6379 158.66 -9.9833 -6.4241 -1.2294 -0 0 -0 -0 0 -0 -0 0 -0 -0 0 -0 
0 0.95228 0 -0 0 -0 -2.7787 -5.7694 158.88 1.587 -5.8623 -5.9512 1.587 -5.8623 -5.9512 1.3734 -4.9138 -5.0069 -0 0 -0 20.535 -10.709 -0.2056 -32.124 -54.565 -2.6251 -11.697 -65.535 -53.929 -0 0 -0 -15.918 14.414 -11.497 57.242 -37.979 52.664 3.8087 2.5732 25.3 3.7484 -8.5231 16.532 3.7484 -8.5231 16.532 -2.7787 -5.7694 158.88 5.1368 -5.9296 -6.3844 -0 0 -0 -0 0 -0 -0 0 -0 -0 0 -0 -2.7787 -5.7694 158.88 -10.098 -6.6235 -1.3641 -0 0 -0 -0 0 -0 -0 0 -0 -0 0 -0 
0 0.95228 0 -0 0 -0 -2.8036 -5.8432 159.1 1.5974 -5.9512 -5.8223 1.5974 -5.9512 -5.8223 1.3819 -4.9886 -4.8989 -0 0 -0 19.828 -8.7617 2.264 -32.455 -55.245 -2.5864 -13.297 -65.154 -55.415 -0 0 -0 -15.516 14.534 -12.359 57.382 -37.447 53.625 3.6777 2.554 24.957 3.6044 -8.5265 16.366 3.6044 -8.5265 16.366 -2.8036 -5.8432 159.1 5.1633 -6.0738 -6.4166 -0 0 -0 -0 0 -0 -0 0 -0 -0 0 -0 -2.8036 -5.8432 159.1 -10.121 -6.7949 -1.4122 -0 0 -0 -0 0 -0 -0 0 -0 -0 0 -0 
0 0.95228 0 -0 0 -0 -2.7118 -5.7427 159.41 1.558 -6.1271 -5.722 1.558 -6.1271 -5.722 1.3493 -5.1368 -4.8146 -0 0 -0 19.067 -6.575 4.9368 -32.974 -55.572 -2.8859 -12.723 -64.627 -54.642 -0 0 -0 -15.082 15.088 -12.752 57.561 -37.056 54.534 3.5574 2.4682 24.814 3.7441 -8.5656 16.115 3.7441 -8.5656 16.115 -2.7118 -5.7427 159.41 5.2322 -6.032 -6.3169 -0 0 -0 -0 0 -0 -0 0 -0 -0 0 -0 -2.7118 -5.7427 159.41 -10.107 -6.7394 -1.4722 -0 0 -0 -0 0 -0 -0 0 -0 -0 0 -0 
0 0.95228 0 -0 0 -0 -2.665 -5.5731 159.87 1.4553 -6.5289 -5.6589 1.4553 -6.5289 -5.6589 1.2651 -5.4751 -4.7611 -0 0 -0 18.178 -4.0402 7.3425 -33.518 -55.9 -3.4147 -11.266 -64.075 -53.174 -0 0 -0 -14.888 16.188 -12.383 57.617 -36.969 54.946 3.5935 2.0327 24.556 4.0197 -8.4314 15.828 4.0196 -8.4314 15.828 -2.665 -5.5731 159.87 5.1748 -5.9595 -6.1952 -0 0 -0 -0 0 -0 -0 0 -0 -0 0 -0 -2.665 -5.5731 159.87 -10.137 -6.5389 -1.4661 -0 0 -0 -0 0 -0 -0 0 -0 -0 0 -0 
0 0.95228 0 -0 0 -0 -2.6151 -5.4761 160.38 1.3867 -6.7239 -5.5236 1.3867 -6.7239 -5.5236 1.2078 -5.6396 -4.6471 -0 0 -0 17.494 -2.5961 9.4296 -34.248 -56.012 -3.9514 -9.1822 -63.783 -51.199 -0 0 -0 -14.709 16.591 -12.069 57.336 -36.866 54.979 3.7778 0.86489 23.954 4.3234 -8.7872 15.545 4.3234 -8.7872 15.545 -2.6151 -5.4761 160.38 5.1004 -5.9132 -6.0175 -0 0 -0 -0 0 -0 -0 0 -0 -0 0 -0 -2.6151 -5.4761 160.38 -10.171 -6.3633 -1.3266 -0 0 -0 -0 0 -0 -0 0 -0 -0 0 -0 
0 0.95228 0 -0 0 -0 -2.6236 -5.4994 161.03 1.2856 -6.5613 -5.246 1.2856 -6.5613 -5.246 1.1197 -5.504 -4.4132 -0 0 -0 17.023 -2.7549 10.884 -35.218 -55.84 -4.7907 -6.345 -63.65 -48.477 -0 0 -0 -14.207 16.083 -12.426 56.938 -36.715 54.869 3.771 -0.28874 23.562 4.569 -9.8093 15.059 4.569 -9.8093 15.059 -2.6236 -5.4994 161.03 5.0232 -6.0043 -5.9498 -0 0 -0 -0 0 -0 -0 0 -0 -0 0 -0 -2.6236 -5.4994 161.03 -10.265 -6.2583 -1.3198 -0 0 -0 -0 0 -0 -0 0 -0 -0 0 -0 
0 0.95228 0 -0 0 -0 -2.5582 -5.536 161.84 1.1964 -6.2452 -4.9987 1.1964 -6.2452 -4.9987 1.0411 -5.2394 -4.2048 -0 0 -0 16.507 -3.5789 11.614 -36.108 -55.674 -5.4428 -4.5585 -63.697 -47.072 -0 0 -0 -13.783 15.323 -12.798 56.825 -36.745 54.95 3.5467 -0.74346 23.491 4.6755 -11.247 14.405 4.6755 -11.247 14.405 -2.5582 -5.536 161.84 4.9749 -6.0775 -5.9444 -0 0 -0 -0 0 -0 -0 0 -0 -0 0 -0 -2.5582 -5.536 161.84 -10.288 -6.1101 -1.3935 -0 0 -0 -0 0 -0 -0 0 -0 -0 0 -0 
0 0.95228 0 -0 0 -0 -2.3442 -5.5086 162.79 1.0705 -6.1407 -4.938 1.0705 -6.1407 -4.938 0.93436 -5.1524 -4.1529 -0 0 -0 15.766 -3.6618 11.794 -36.805 -55.668 -5.8403 -4.3305 -63.611 -47.185 -0 0 -0 -13.511 15.268 -12.596 57.323 -37.106 55.393 3.2463 -0.25848 23.637 4.4905 -12.256 13.484 4.4905 -12.256 13.484 -2.3442 -5.5086 162.79 5.0171 -6.1063 -5.9948 -0 0 -0 -0 0 -0 -0 0 -0 -0 0 -0 -2.3442 -5.5086 162.79 -10.232 -5.8126 -1.5569 -0 0 -0 -0 0 -0 -0 0 -0 -0 0 -0 
0 0.95228 0 -0 0 -0 -2.0359 -5.4001 163.77 0.96427 -6.1368 -5.0448 0.96427 -6.1368 -5.0448 0.84596 -5.1496 -4.2417 -0 0 -0 14.733 -3.1508 11.839 -37.618 -55.617 -6.4092 -4.5868 -63.677 -47.371 -0 0 -0 -13.397 15.457 -11.783 58.246 -38.078 56.228 3.0111 0.71723 23.873 3.9872 -12.674 12.346 3.9872 -12.674 12.346 -2.0359 -5.4001 163.77 5.1209 -6.0867 -6.0925 -0 0 -0 -0 0 -0 -0 0 -0 -0 0 -0 -2.0359 -5.4001 163.77 -10.121 -5.3459 -1.7982 -0 0 -0 -0 0 -0 -0 0 -0 -0 0 -0 
0 0.95228 0 -0 0 -0 -1.7289 -5.5155 164.63 0.85858 -6.2102 -5.1009 0.85858 -6.2102 -5.1009 0.75808 -5.2118 -4.2881 -0 0 -0 13.764 -2.5235 11.368 -38.242 -55.286 -6.8798 -4.4544 -64.021 -46.55 -0 0 -0 -12.87 15.397 -10.962 59.464 -39.74 57.337 2.8267 1.8566 24.212 3.2997 -12.897 10.864 3.2997 -12.897 10.864 -1.7289 -5.5155 164.63 5.3017 -6.2359 -6.2288 -0 0 -0 -0 0 -0 -0 0 -0 -0 0 -0 -1.7289 -5.5155 164.63 -9.9318 -5.0771 -2.0022 -0 0 -0 -0 0 -0 -0 0 -0 -0 0 -0 
0 0.95228 0 -0 0 -0 -1.5109 -5.7606 165.43 0.73947 -6.2856 -5.2476 0.73947 -6.2856 -5.2476 0.65963 -5.2757 -4.4104 -0 0 -0 12.937 -1.8154 10.86 -38.641 -54.866 -7.2592 -4.3646 -64.41 -46.283 -0 0 -0 -12.093 14.614 -9.8689 60.82 -41.722 58.398 2.6789 2.4512 24.332 2.5251 -13.261 9.1787 2.5251 -13.261 9.1787 -1.5109 -5.7606 165.43 5.4717 -6.5277 -6.5668 -0 0 -0 -0 0 -0 -0 0 -0 -0 0 -0 -1.5109 -5.7606 165.43 -9.7988 -5.0076 -2.3411 -0 0 -0 -0 0 -0 -0 0 -0 -0 0 -0 
0 0.95228 0 -0 0 -0 -1.3446 -6.0199 166.14 0.59082 -6.3708 -5.4466 0.59082 -6.3708 -5.4466 0.53686 -5.3481 -4.5763 -0 0 -0 12.482 -1.0493 10.311 -38.93 -54.567 -7.5885 -3.642 -64.029 -45.489 -0 0 -0 -11.048 13.203 -8.6059 61.799 -43.727 59.646 2.7304 2.0662 23.705 1.6454 -13.608 7.1694 1.6454 -13.608 7.1694 -1.3446 -6.0199 166.14 5.6079 -6.8703 -6.9514 -0 0 -0 -0 0 -0 -0 0 -0 -0 0 -0 -1.3446 -6.0199 166.14 -9.6805 -5.0636 -2.7858 -0 0 -0 -0 0 -0 -0 0 -0 -0 0 -0 
0 0.95228 0 -0 0 -0 -1.1164 -6.1855 166.58 0.48599 -6.3476 -5.6522 0.48599 -6.3476 -5.6522 0.45025 -5.3293 -4.7481 -0 0 -0 12.267 -0.50875 9.8854 -39.116 -54.509 -7.6778 -3.942 -63.492 -46.008 -0 0 -0 -9.9281 10.87 -7.353 62.046 -45.178 60.771 2.8302 0.85285 22.797 0.85153 -13.903 5.0974 0.85154 -13.903 5.0974 -1.1164 -6.1855 166.58 5.8482 -7.0889 -7.099 -0 0 -0 -0 0 -0 -0 0 -0 -0 0 -0 -1.1164 -6.1855 166.58 -9.4695 -5.1263 -3.1112 -0 0 -0 -0 0 -0 -0 0 -0 -0 0 -0 
0 0.95228 0 -0 0 -0 -0.88979 -6.1783 166.91 0.41864 -6.1357 -5.8136 0.41864 -6.1357 -5.8136 0.39347 -5.1516 -4.8832 -0 0 -0 11.965 -0.45106 9.6001 -39.244 -54.582 -7.6562 -4.7221 -62.98 -46.897 -0 0 -0 -9.093 7.607 -6.1198 61.209 -46.115 60.67 2.9922 -1.1758 22.006 0.32282 -14.114 3.2806 0.32282 -14.114 3.2805 -0.88979 -6.1783 166.91 6.0346 -7.1189 -7.1987 -0 0 -0 -0 0 -0 -0 0 -0 -0 0 -0 -0.88979 -6.1783 166.91 -9.2671 -5.0647 -3.4089 -0 0 -0 -0 0 -0 -0 0 -0 -0 0 -0 
